<svg width="24" height="24" viewBox="0 0 24 24" fill="none" xmlns="http://www.w3.org/2000/svg">
<circle cx="12" cy="12" r="12" fill="#D9D9D9"/>
<g clip-path="url(#clip0_548_249)">
<path d="M12.7101 14.8297L16.9501 10.5897C17.0438 10.4967 17.1182 10.3861 17.1689 10.2643C17.2197 10.1424 17.2458 10.0117 17.2458 9.8797C17.2458 9.74769 17.2197 9.61698 17.1689 9.49512C17.1182 9.37326 17.0438 9.26266 16.9501 9.1697C16.7627 8.98345 16.5092 8.87891 16.2451 8.87891C15.9809 8.87891 15.7274 8.98345 15.5401 9.1697L12.0001 12.7097L8.46005 9.1697C8.27269 8.98345 8.01924 8.87891 7.75505 8.87891C7.49086 8.87891 7.23741 8.98345 7.05005 9.1697C6.95737 9.26314 6.88404 9.37395 6.83428 9.49579C6.78452 9.61763 6.75929 9.74809 6.76005 9.8797C6.75929 10.0113 6.78452 10.1418 6.83428 10.2636C6.88404 10.3854 6.95737 10.4963 7.05005 10.5897L11.2901 14.8297C11.383 14.9234 11.4936 14.9978 11.6155 15.0486C11.7373 15.0994 11.868 15.1255 12.0001 15.1255C12.1321 15.1255 12.2628 15.0994 12.3846 15.0486C12.5065 14.9978 12.6171 14.9234 12.7101 14.8297Z" fill="white"/>
</g>
<defs>
<clipPath id="clip0_548_249">
<rect width="24" height="24" fill="white"/>
</clipPath>
</defs>
</svg>
