<svg width="35" height="34" viewBox="0 0 35 34" fill="none" xmlns="http://www.w3.org/2000/svg">
<path d="M27.9975 18.4173C27.6858 18.4173 27.36 18.3182 27.0483 18.2473C26.4177 18.1063 25.7976 17.9217 25.1925 17.6948C24.5353 17.4557 23.8129 17.4681 23.1643 17.7297C22.5157 17.9912 21.9867 18.4834 21.6792 19.1115L21.3675 19.7632C19.9917 18.9829 18.7206 18.0308 17.585 16.9298C16.484 15.7942 15.532 14.5232 14.7517 13.1473L15.4033 12.8498C16.0314 12.5423 16.5236 12.0133 16.7851 11.3647C17.0467 10.7161 17.0591 9.99369 16.82 9.33648C16.595 8.72594 16.4105 8.10126 16.2675 7.46648C16.1967 7.15482 16.14 6.82898 16.0975 6.51732C15.9255 5.51945 15.4028 4.61579 14.6236 3.96907C13.8445 3.32236 12.86 2.9751 11.8475 2.98982H7.58333C6.98443 2.98903 6.39213 3.11484 5.84525 3.35898C5.29837 3.60312 4.80927 3.96009 4.41 4.40648C4.00245 4.86499 3.699 5.4063 3.52048 5.9932C3.34196 6.58011 3.29262 7.1987 3.37583 7.80648C4.14591 13.7028 6.83988 19.1804 11.04 23.3898C15.2494 27.5899 20.727 30.2839 26.6233 31.054C26.8072 31.068 26.9919 31.068 27.1758 31.054C28.2205 31.0555 29.2291 30.6722 30.0092 29.9773C30.4556 29.5781 30.8125 29.0889 31.0567 28.5421C31.3008 27.9952 31.4266 27.4029 31.4258 26.804V22.554C31.4182 21.5751 31.0729 20.6289 30.4482 19.8752C29.8236 19.1215 28.9579 18.6065 27.9975 18.4173ZM28.6917 26.9173C28.6912 27.115 28.6494 27.3104 28.5688 27.491C28.4883 27.6715 28.3709 27.8332 28.2242 27.9657C28.0689 28.1071 27.8841 28.2123 27.6832 28.2735C27.4823 28.3348 27.2703 28.3506 27.0625 28.3198C21.7759 27.6294 16.8629 25.2201 13.08 21.4632C9.29392 17.6771 6.86371 12.7469 6.16667 7.43815C6.13589 7.23037 6.1517 7.01835 6.21296 6.81744C6.27421 6.61653 6.37937 6.43175 6.52083 6.27648C6.65488 6.12795 6.81887 6.00949 7.002 5.92891C7.18514 5.84833 7.38326 5.80746 7.58333 5.80898H11.8333C12.1608 5.80098 12.4809 5.90671 12.7392 6.10818C12.9975 6.30965 13.178 6.59441 13.25 6.91398C13.25 7.29648 13.3775 7.69315 13.4625 8.07565C13.6262 8.81779 13.844 9.54696 14.1142 10.2573L12.1308 11.1923C11.7899 11.3488 11.525 11.6341 11.3942 11.9857C11.2525 12.3306 11.2525 12.7174 11.3942 13.0623C13.433 17.4296 16.9436 20.9401 21.3108 22.979C21.6557 23.1207 22.0426 23.1207 22.3875 22.979C22.739 22.8481 23.0243 22.5832 23.1808 22.2423L24.0733 20.259C24.8042 20.5255 25.552 20.7432 26.3117 20.9107C26.68 20.9957 27.0767 21.0665 27.4592 21.1231C27.7787 21.1951 28.0635 21.3756 28.265 21.6339C28.4664 21.8922 28.5722 22.2123 28.5642 22.5398L28.6917 26.9173ZM20.3333 2.83398C20.0075 2.83398 19.6675 2.83398 19.3417 2.83398C18.9659 2.86592 18.6183 3.0458 18.3752 3.33406C18.1321 3.62232 18.0135 3.99534 18.0454 4.37107C18.0774 4.74679 18.2572 5.09444 18.5455 5.33753C18.8338 5.58063 19.2068 5.69925 19.5825 5.66732H20.3333C22.5877 5.66732 24.7497 6.56285 26.3437 8.15691C27.9378 9.75097 28.8333 11.913 28.8333 14.1673C28.8333 14.4223 28.8333 14.6632 28.8333 14.9181C28.8019 15.2919 28.92 15.6628 29.1617 15.9496C29.4033 16.2364 29.7489 16.4157 30.1225 16.4482H30.2358C30.5905 16.4496 30.9328 16.318 31.1951 16.0793C31.4574 15.8406 31.6206 15.5122 31.6525 15.159C31.6525 14.8332 31.6525 14.4932 31.6525 14.1673C31.6525 11.164 30.4604 8.28345 28.3381 6.15845C26.2157 4.03344 23.3367 2.83774 20.3333 2.83398ZM23.1667 14.1673C23.1667 14.543 23.3159 14.9034 23.5816 15.1691C23.8473 15.4347 24.2076 15.584 24.5833 15.584C24.9591 15.584 25.3194 15.4347 25.5851 15.1691C25.8507 14.9034 26 14.543 26 14.1673C26 12.6644 25.403 11.2231 24.3403 10.1604C23.2776 9.09767 21.8362 8.50065 20.3333 8.50065C19.9576 8.50065 19.5973 8.64991 19.3316 8.91558C19.0659 9.18126 18.9167 9.54159 18.9167 9.91732C18.9167 10.293 19.0659 10.6534 19.3316 10.9191C19.5973 11.1847 19.9576 11.334 20.3333 11.334C21.0848 11.334 21.8054 11.6325 22.3368 12.1638C22.8682 12.6952 23.1667 13.4159 23.1667 14.1673Z" fill="white"/>
</svg>
