<svg width="50" height="50" viewBox="0 0 50 50" fill="none" xmlns="http://www.w3.org/2000/svg">
<rect width="50" height="50" rx="25" fill="#C4C4C4"/>
<path d="M25 26.2426L31.195 20.0476C31.5229 19.7216 31.9665 19.5387 32.4288 19.5387C32.8911 19.5387 33.3346 19.7216 33.6625 20.0476C33.8266 20.2103 33.9567 20.4038 34.0456 20.6171C34.1344 20.8303 34.1802 21.059 34.1802 21.2901C34.1802 21.5211 34.1344 21.7498 34.0456 21.9631C33.9567 22.1763 33.8266 22.3699 33.6625 22.5326L26.2425 29.9526C26.0798 30.1166 25.8863 30.2468 25.673 30.3356C25.4598 30.4245 25.231 30.4702 25 30.4702C24.769 30.4702 24.5403 30.4245 24.327 30.3356C24.1138 30.2468 23.9202 30.1166 23.7575 29.9526L16.25 22.5326C16.0878 22.369 15.9595 22.1751 15.8724 21.9619C15.7853 21.7487 15.7412 21.5204 15.7425 21.2901C15.7412 21.0598 15.7853 20.8314 15.8724 20.6182C15.9595 20.405 16.0878 20.2111 16.25 20.0476C16.5779 19.7216 17.0215 19.5387 17.4838 19.5387C17.9461 19.5387 18.3896 19.7216 18.7175 20.0476L25 26.2426Z" fill="white"/>
</svg>
