<svg width="35" height="34" viewBox="0 0 35 34" fill="none" xmlns="http://www.w3.org/2000/svg">
<path d="M32.0416 3.43862C31.6382 3.10306 31.1515 2.88314 30.633 2.80226C30.1146 2.72138 29.584 2.78258 29.0976 2.97932L3.70964 13.2294C3.16671 13.4528 2.70454 13.836 2.38449 14.3282C2.06445 14.8204 1.90165 15.3983 1.91771 15.9851C1.93377 16.572 2.12793 17.1401 2.47442 17.6141C2.82091 18.088 3.30334 18.4454 3.85769 18.6387L8.9931 20.4248L11.8555 29.8904C11.8944 30.0169 11.9508 30.1373 12.0232 30.248C12.0342 30.265 12.0496 30.2777 12.0613 30.2942C12.1449 30.4108 12.2459 30.5139 12.3608 30.5998C12.3935 30.6247 12.4248 30.6481 12.4598 30.6702C12.5942 30.7594 12.7432 30.8247 12.9 30.863L12.9167 30.8645L12.9262 30.8685C13.0205 30.8877 13.1164 30.8974 13.2126 30.8976C13.2219 30.8976 13.2301 30.8932 13.2392 30.893C13.3844 30.8904 13.5283 30.8655 13.6658 30.8189C13.6978 30.808 13.7252 30.7898 13.7562 30.7766C13.8588 30.7341 13.9559 30.6796 14.0456 30.6143C14.1175 30.5538 14.1894 30.4932 14.2613 30.4327L18.0893 26.2063L23.7989 30.6292C24.3016 31.0205 24.9203 31.2332 25.5573 31.2338C26.2248 31.2329 26.8717 31.0026 27.3896 30.5814C27.9075 30.1603 28.2648 29.5739 28.4017 28.9206L33.0238 6.23046C33.1286 5.71978 33.0925 5.19023 32.9195 4.69846C32.7465 4.2067 32.443 3.77122 32.0416 3.43862ZM13.7744 20.8758C13.5779 21.0715 13.4436 21.3208 13.3884 21.5924L12.9499 23.7231L11.8391 20.0496L17.5982 17.0506L13.7744 20.8758ZM25.5352 28.3893L18.788 23.1626C18.5057 22.9445 18.1516 22.8407 17.7963 22.872C17.4409 22.9033 17.1104 23.0673 16.8705 23.3314L15.6445 24.6846L16.0778 22.5788L26.1121 12.5445C26.3516 12.3054 26.4975 11.9883 26.5234 11.6508C26.5493 11.3133 26.4535 10.9777 26.2533 10.7047C26.0531 10.4318 25.7618 10.2396 25.4321 10.1629C25.1024 10.0862 24.7562 10.1301 24.4561 10.2867L10.0552 17.7846L4.77907 15.8538L30.2486 5.66459L25.5352 28.3893Z" fill="white"/>
</svg>
