<svg width="35" height="34" viewBox="0 0 35 34" fill="none" xmlns="http://www.w3.org/2000/svg">
<path d="M11.7834 8.78615C11.5202 8.7477 11.2518 8.80052 11.0229 8.93583H11.0033C10.4718 9.2474 9.99298 9.6412 9.58464 10.1026C9.24531 10.4949 9.06123 10.8919 9.01289 11.274C8.98407 11.5018 9.00359 11.7295 9.07146 11.9471L9.09563 11.962C9.47773 13.085 9.97697 14.1653 10.5868 15.1824C11.3725 16.6113 12.3393 17.9328 13.4633 19.114L13.4968 19.1624L13.5498 19.2014L13.5832 19.2405L13.6223 19.274C14.8078 20.4013 16.1325 21.3726 17.5642 22.1644C19.2004 23.055 20.1933 23.4761 20.7892 23.6509V23.6602C20.964 23.7132 21.123 23.7374 21.2829 23.7374C21.7908 23.7002 22.2716 23.494 22.6486 23.1517C23.1079 22.7432 23.4973 22.2624 23.8014 21.7283V21.719C24.0868 21.1817 23.9901 20.6731 23.5783 20.3291C22.7535 19.6082 21.8616 18.9678 20.9147 18.4168C20.2807 18.0728 19.6364 18.281 19.3752 18.6297L18.8183 19.3316C18.5329 19.6802 18.0141 19.6319 18.0141 19.6319L17.9992 19.6412C14.1308 18.6529 13.0989 14.7361 13.0989 14.7361C13.0989 14.7361 13.0505 14.2034 13.4084 13.932L14.1057 13.3704C14.4395 13.099 14.6719 12.4556 14.314 11.8206C13.7668 10.8725 13.1278 9.98038 12.4062 9.15709C12.2485 8.963 12.0272 8.83095 11.7815 8.78429L11.7834 8.78615Z" fill="white"/>
<path d="M18.3206 7.08358C17.9294 7.08358 17.6123 7.40072 17.6123 7.79192C17.6123 8.18312 17.9294 8.50025 18.3206 8.50025C20.1119 8.50025 21.6005 9.08578 22.7763 10.207C23.3817 10.821 23.8529 11.5477 24.1623 12.343C24.4728 13.1413 24.614 13.9925 24.5778 14.8452C24.5612 15.236 24.8645 15.5663 25.2554 15.5829C25.6462 15.5996 25.9766 15.2962 25.9932 14.9053C26.0378 13.8564 25.8639 12.8098 25.4825 11.8294C25.1012 10.8491 24.5207 9.9557 23.7769 9.20359L23.7626 9.18998C22.3035 7.79452 20.4539 7.08358 18.3206 7.08358Z" fill="white"/>
<path d="M18.2724 9.41305C17.8812 9.41305 17.5641 9.73018 17.5641 10.1214C17.5641 10.5126 17.8812 10.8297 18.2724 10.8297H18.2955C19.5881 10.9208 20.5287 11.3517 21.1881 12.0589C21.8631 12.7873 22.2129 13.6921 22.187 14.8115C22.1779 15.2026 22.4876 15.5269 22.8787 15.536C23.2698 15.545 23.5942 15.2353 23.6032 14.8442C23.6373 13.3745 23.1646 12.1071 22.2264 11.0951L22.2252 11.0938C21.2666 10.0651 19.9516 9.52098 18.3673 9.41464L18.3436 9.41305H18.2724Z" fill="white"/>
<path d="M18.2456 11.785C17.8549 11.7645 17.5216 12.0645 17.501 12.4552C17.4804 12.8458 17.7805 13.1792 18.1711 13.1998C18.7642 13.231 19.1423 13.4089 19.38 13.6489C19.6187 13.89 19.7973 14.276 19.8299 14.8812C19.8509 15.2719 20.1846 15.5715 20.5752 15.5505C20.9659 15.5295 21.2655 15.1958 21.2445 14.8051C21.1988 13.9551 20.9328 13.2036 20.3866 12.6521C19.8393 12.0995 19.0921 11.8296 18.2456 11.785Z" fill="white"/>
<path fill-rule="evenodd" clip-rule="evenodd" d="M10.5112 3.37684C15.0192 2.36918 19.694 2.36918 24.202 3.37684L24.6823 3.4842C27.3694 4.08485 29.4902 6.14585 30.1675 8.81467C31.3118 13.3237 31.3118 18.0471 30.1675 22.5562C29.4902 25.225 27.3694 27.286 24.6823 27.8866L24.202 27.994C21.3703 28.6269 18.4728 28.8623 15.5922 28.7001L11.8335 32.0632C11.5449 32.3214 11.1386 32.4021 10.7732 32.2739C10.4077 32.1457 10.141 31.8287 10.0771 31.4468L9.45543 27.7332C7.04371 26.9838 5.17385 25.0314 4.5457 22.5562C3.40143 18.0471 3.40143 13.3237 4.5457 8.81467C5.22297 6.14585 7.3438 4.08485 10.0309 3.4842L10.5112 3.37684ZM23.7385 5.45067C19.5357 4.51124 15.1775 4.51124 10.9748 5.45067L10.4945 5.55802C8.58929 5.98389 7.0856 7.44515 6.60541 9.33737C5.5482 13.5034 5.5482 17.8675 6.60541 22.0335C7.0856 23.9257 8.58929 25.3869 10.4945 25.8128L10.6213 25.8412C11.0434 25.9355 11.3661 26.2762 11.4375 26.7027L11.8544 29.193L14.5069 26.8197C14.7211 26.6281 15.0037 26.5314 15.2904 26.5517C18.1145 26.7516 20.9605 26.5411 23.7385 25.9202L24.2187 25.8128C26.1239 25.3869 27.6276 23.9257 28.1078 22.0335C29.165 17.8675 29.165 13.5034 28.1078 9.33737C27.6276 7.44515 26.1239 5.98389 24.2188 5.55802L23.7385 5.45067Z" fill="white"/>
</svg>
